<?xml version="1.0" encoding="utf-8"?>
<!-- Generator: Adobe Illustrator 16.0.3, SVG Export Plug-In . SVG Version: 6.00 Build 0)  -->
<!DOCTYPE svg PUBLIC "-//W3C//DTD SVG 1.1//EN" "http://www.w3.org/Graphics/SVG/1.1/DTD/svg11.dtd">
<svg version="1.1" id="Layer_1" xmlns="http://www.w3.org/2000/svg" xmlns:xlink="http://www.w3.org/1999/xlink" x="0px" y="0px"
	 width="195px" height="100px" viewBox="0 0 195 100" enable-background="new 0 0 195 100" xml:space="preserve">
<g>
	<g>
		<path fill="#555555" d="M41.936,15.151v52.38h-1.871c-0.625,0-0.984-0.312-1.08-0.936l-0.36-5.652
			c-1.584,2.16-3.433,3.876-5.544,5.148c-2.112,1.271-4.488,1.907-7.128,1.907c-4.416,0-7.849-1.523-10.296-4.571
			c-2.448-3.049-3.672-7.62-3.672-13.716c0-2.616,0.342-5.058,1.025-7.326c0.685-2.268,1.686-4.236,3.006-5.904
			s2.946-2.982,4.878-3.942c1.932-0.959,4.158-1.44,6.679-1.44c2.424,0,4.523,0.444,6.3,1.332c1.775,0.888,3.323,2.208,4.644,3.96
			v-21.24H41.936z M38.516,39.415c-1.367-2.063-2.886-3.516-4.554-4.356c-1.668-0.84-3.57-1.26-5.706-1.26
			c-2.112,0-3.96,0.384-5.544,1.152c-1.584,0.769-2.91,1.854-3.978,3.258c-1.068,1.404-1.872,3.084-2.412,5.04
			c-0.54,1.957-0.811,4.11-0.811,6.462c0,5.328,0.978,9.246,2.935,11.753c1.955,2.509,4.781,3.762,8.478,3.762
			c2.352,0,4.5-0.611,6.444-1.836c1.943-1.223,3.659-2.939,5.147-5.147V39.415z"/>
		<path fill="#555555" d="M67.928,31.135c2.568,0,4.866,0.438,6.895,1.314c2.027,0.876,3.737,2.118,5.13,3.726
			c1.392,1.608,2.453,3.546,3.186,5.814s1.099,4.806,1.099,7.614c0,2.808-0.366,5.34-1.099,7.596s-1.794,4.188-3.186,5.796
			c-1.393,1.608-3.103,2.845-5.13,3.708c-2.028,0.864-4.326,1.296-6.895,1.296s-4.866-0.432-6.894-1.296
			c-2.028-0.863-3.744-2.1-5.148-3.708c-1.404-1.607-2.472-3.54-3.204-5.796s-1.098-4.788-1.098-7.596
			c0-2.808,0.365-5.346,1.098-7.614s1.8-4.206,3.204-5.814s3.12-2.85,5.148-3.726C63.062,31.573,65.359,31.135,67.928,31.135z
			 M67.928,65.299c2.136,0,4.002-0.365,5.598-1.098c1.597-0.732,2.929-1.781,3.996-3.15c1.068-1.367,1.866-3.018,2.395-4.949
			c0.527-1.932,0.792-4.098,0.792-6.499c0-2.376-0.265-4.536-0.792-6.48c-0.528-1.944-1.326-3.605-2.395-4.986
			c-1.067-1.38-2.399-2.442-3.996-3.186c-1.596-0.744-3.462-1.116-5.598-1.116c-2.137,0-4.002,0.372-5.598,1.116
			c-1.597,0.744-2.929,1.806-3.996,3.186c-1.068,1.38-1.872,3.042-2.412,4.986c-0.54,1.944-0.81,4.104-0.81,6.48
			c0,2.4,0.27,4.567,0.81,6.499s1.344,3.582,2.412,4.949c1.067,1.369,2.399,2.418,3.996,3.15
			C63.926,64.934,65.791,65.299,67.928,65.299z"/>
		<path fill="#05713A" d="M104.378,15.943c2.447,0,4.576,0.378,6.385,1.134c1.81,0.756,3.308,1.831,4.496,3.222
			c1.188,1.392,2.074,3.072,2.659,5.04c0.585,1.968,0.878,4.164,0.878,6.588c0,2.4-0.315,4.596-0.945,6.588
			c-0.63,1.993-1.553,3.708-2.768,5.148s-2.718,2.563-4.509,3.366c-1.791,0.804-3.856,1.206-6.196,1.206h-6.21v19.296h-5.211V15.943
			H104.378z M104.378,42.691c1.493,0,2.812-0.264,3.955-0.792c1.143-0.528,2.106-1.266,2.889-2.214
			c0.783-0.948,1.373-2.082,1.769-3.402c0.396-1.319,0.595-2.772,0.595-4.356c0-3.288-0.761-5.855-2.282-7.704
			c-1.521-1.848-3.829-2.772-6.925-2.772h-6.21v21.24H104.378z"/>
		<path fill="#05713A" d="M158.917,41.755c0,3.864-0.459,7.38-1.377,10.547c-0.918,3.168-2.214,5.881-3.888,8.137
			s-3.686,4.002-6.034,5.238c-2.35,1.236-4.946,1.854-7.79,1.854h-14.444V15.943h14.444c2.844,0,5.44,0.618,7.79,1.854
			c2.349,1.236,4.36,2.988,6.034,5.256s2.97,4.986,3.888,8.154C158.458,34.375,158.917,37.892,158.917,41.755z M153.544,41.755
			c0-3.168-0.323-6-0.972-8.496c-0.647-2.496-1.565-4.608-2.754-6.336c-1.188-1.728-2.628-3.048-4.32-3.96
			c-1.691-0.912-3.582-1.368-5.67-1.368h-9.207v40.284h9.207c2.088,0,3.979-0.455,5.67-1.367c1.692-0.912,3.133-2.227,4.32-3.942
			c1.188-1.716,2.106-3.821,2.754-6.318C153.221,47.755,153.544,44.923,153.544,41.755z"/>
		<path fill="#05713A" d="M171.688,21.631v18.036h15.903v5.688h-15.903v22.176h-5.237V15.943h23.841v5.688H171.688z"/>
	</g>
	<g>
		<g>
			<path fill="#555555" d="M45.277,81.231c1.627,0,2.863,0.301,3.709,0.902c0.846,0.603,1.27,1.511,1.27,2.728
				c0,0.675-0.105,1.282-0.318,1.825c-0.211,0.542-0.549,0.998-1.012,1.368s-1.055,0.654-1.773,0.853
				c-0.723,0.198-1.584,0.298-2.59,0.298H32.205l2.639-3.411h10.037c0.488,0,0.846-0.076,1.07-0.229s0.338-0.399,0.338-0.744
				c0-0.344-0.113-0.588-0.338-0.733s-0.582-0.219-1.07-0.219H37.66c-0.859,0-1.6-0.092-2.221-0.277
				c-0.623-0.185-1.139-0.442-1.547-0.773c-0.41-0.33-0.715-0.73-0.912-1.2c-0.199-0.469-0.299-0.988-0.299-1.557
				c0-0.622,0.109-1.187,0.328-1.696c0.217-0.509,0.555-0.942,1.012-1.299c0.455-0.357,1.043-0.635,1.766-0.833
				c0.719-0.198,1.582-0.298,2.588-0.298h11.523l-2.639,3.451h-9.203c-0.475,0-0.83,0.066-1.061,0.198
				c-0.232,0.133-0.348,0.371-0.348,0.715s0.115,0.585,0.348,0.724c0.23,0.139,0.586,0.208,1.061,0.208H45.277z"/>
			<path fill="#555555" d="M61.363,75.718c3.227,0,5.648,0.549,7.27,1.646c1.619,1.098,2.43,2.829,2.43,5.196
				c0,2.38-0.807,4.119-2.42,5.217s-4.041,1.646-7.279,1.646c-3.254,0-5.684-0.548-7.289-1.646c-1.607-1.098-2.41-2.837-2.41-5.217
				c0-2.367,0.807-4.099,2.42-5.196S58.123,75.718,61.363,75.718z M61.363,85.972c1.031,0,1.904-0.042,2.617-0.129
				c0.715-0.086,1.293-0.254,1.736-0.506c0.443-0.251,0.764-0.598,0.961-1.041c0.199-0.442,0.299-1.021,0.299-1.735
				s-0.1-1.292-0.299-1.735c-0.197-0.443-0.518-0.787-0.961-1.031c-0.443-0.245-1.021-0.41-1.736-0.496
				c-0.713-0.086-1.586-0.129-2.617-0.129s-1.904,0.043-2.619,0.129c-0.713,0.086-1.293,0.251-1.734,0.496
				c-0.443,0.244-0.764,0.588-0.963,1.031c-0.197,0.443-0.297,1.021-0.297,1.735s0.1,1.293,0.297,1.735
				c0.199,0.443,0.52,0.79,0.963,1.041c0.441,0.252,1.021,0.42,1.734,0.506C59.459,85.93,60.332,85.972,61.363,85.972z"/>
			<path fill="#555555" d="M88.021,75.936l-2.658,3.451H77.27v1.726h9.998l-2.5,3.233H77.27v4.859h-4.125v-13.27H88.021z"/>
			<path fill="#555555" d="M105.893,75.936l-2.658,3.451h-4.74v9.818h-4.105v-9.818H88.16l2.658-3.451H105.893z"/>
			<path fill="#555555" d="M121.521,85.794l-2.658,3.411h-11.721v-13.27h4.105v9.858H121.521z"/>
			<path fill="#555555" d="M127.848,89.205l2.48-3.411h3.332c0.396,0,0.811,0,1.24,0s0.803,0.013,1.119,0.039
				c-0.184-0.238-0.398-0.538-0.645-0.902c-0.244-0.363-0.479-0.704-0.703-1.021l-2.381-3.511l-6.227,8.807h-4.861l8.51-12
				c0.277-0.384,0.629-0.727,1.051-1.031c0.424-0.304,0.959-0.456,1.607-0.456c0.621,0,1.141,0.142,1.557,0.426
				c0.416,0.285,0.77,0.639,1.061,1.062l8.291,12H127.848z"/>
			<path fill="#555555" d="M158.195,89.423c-0.264,0-0.525-0.043-0.783-0.129s-0.545-0.28-0.863-0.585l-8.131-7.299v7.795h-3.729
				V78.197c0-0.437,0.063-0.813,0.188-1.131s0.291-0.575,0.496-0.773s0.443-0.344,0.715-0.437c0.27-0.093,0.551-0.139,0.842-0.139
				c0.252,0,0.506,0.043,0.764,0.129s0.553,0.281,0.883,0.585l8.133,7.299v-7.795h3.748v10.988c0,0.437-0.063,0.813-0.188,1.131
				c-0.127,0.317-0.291,0.578-0.496,0.783s-0.447,0.354-0.725,0.446C158.771,89.377,158.486,89.423,158.195,89.423z"/>
			<path fill="#555555" d="M179.756,82.441c0,0.966-0.201,1.861-0.605,2.688c-0.402,0.827-0.957,1.541-1.666,2.143
				c-0.707,0.602-1.549,1.074-2.527,1.418s-2.043,0.516-3.193,0.516h-8.887v-8.271h4.125v4.86h4.762
				c0.568,0,1.094-0.076,1.576-0.229s0.896-0.367,1.24-0.645s0.615-0.611,0.813-1.002c0.199-0.39,0.297-0.823,0.297-1.299
				c0-0.463-0.098-0.893-0.297-1.289c-0.197-0.397-0.477-0.737-0.832-1.021c-0.357-0.284-0.775-0.509-1.25-0.675
				c-0.477-0.165-0.992-0.248-1.547-0.248h-8.887l2.619-3.451h6.268c1.162,0,2.234,0.159,3.213,0.477s1.82,0.764,2.529,1.339
				c0.707,0.575,1.258,1.263,1.656,2.063C179.559,80.613,179.756,81.489,179.756,82.441z"/>
		</g>
		<g>
			<g>
				<path fill="#555555" d="M14.992,78.028c0.285-0.285,0.6-0.514,0.945-0.687c0.346-0.172,0.732-0.259,1.162-0.259
					c0.414,0,0.789,0.083,1.123,0.249c0.334,0.165,0.619,0.402,0.854,0.71c0.236,0.309,0.418,0.681,0.547,1.116
					c0.129,0.437,0.191,0.926,0.191,1.467c0,0.584-0.072,1.114-0.221,1.593c-0.146,0.479-0.355,0.888-0.625,1.229
					c-0.271,0.341-0.594,0.604-0.971,0.791c-0.375,0.187-0.793,0.28-1.256,0.28c-0.225,0-0.424-0.022-0.602-0.067
					c-0.178-0.044-0.342-0.105-0.49-0.186c-0.15-0.079-0.287-0.173-0.414-0.283c-0.125-0.109-0.244-0.231-0.355-0.367l-0.078,0.434
					c-0.033,0.136-0.086,0.23-0.16,0.284c-0.076,0.054-0.176,0.08-0.301,0.08h-1.281V73.976h1.932V78.028z M14.992,82.508
					c0.182,0.21,0.379,0.357,0.592,0.441s0.432,0.126,0.662,0.126c0.236,0,0.453-0.043,0.646-0.13
					c0.193-0.086,0.361-0.224,0.5-0.413c0.141-0.188,0.248-0.435,0.322-0.738c0.074-0.303,0.113-0.669,0.113-1.099
					c0-0.383-0.031-0.708-0.092-0.977s-0.15-0.489-0.27-0.662c-0.119-0.172-0.266-0.298-0.438-0.378
					c-0.172-0.079-0.373-0.118-0.602-0.118c-0.305,0-0.566,0.066-0.787,0.199c-0.223,0.133-0.439,0.328-0.648,0.584V82.508z"/>
				<path fill="#555555" d="M27.529,77.195l-3.893,9.156c-0.061,0.13-0.133,0.229-0.219,0.294c-0.088,0.064-0.225,0.098-0.41,0.098
					h-1.436l1.365-2.912l-2.898-6.636h1.695c0.152,0,0.271,0.035,0.355,0.104c0.084,0.07,0.145,0.152,0.184,0.245l1.371,3.451
					c0.051,0.136,0.098,0.271,0.137,0.409s0.078,0.274,0.115,0.41c0.084-0.275,0.18-0.551,0.287-0.826l1.273-3.444
					c0.037-0.103,0.105-0.187,0.203-0.252s0.205-0.098,0.322-0.098H27.529z"/>
			</g>
		</g>
	</g>
</g>
</svg>
